<svg width="134" height="38" viewBox="0 0 134 38" fill="none" xmlns="http://www.w3.org/2000/svg">
<path d="M51.4357 29.522V20.381C51.4357 17.206 51.4008 14.7987 51.1566 13.2635L57.6111 29.522H61.7281L68.2175 13.2286C67.9733 15.0429 67.9733 16.5431 67.9733 21.6719V29.522H72.2996V4.01782H67.9035L59.6696 24.3235L51.4357 4.01782H47.1094V29.522H51.4357Z" fill="#fff"/>
<path d="M85.0269 29.9756C89.5276 29.9756 92.6677 27.7078 93.4003 23.9397H89.4578C88.9694 25.5795 87.4342 26.4866 85.0966 26.4866C82.2706 26.4866 80.6657 24.9515 80.3517 21.9161L93.3306 21.8812V20.5903C93.3306 15.2173 90.051 11.7633 84.8873 11.7633C79.8283 11.7633 76.3045 15.4965 76.3045 20.9043C76.3045 26.2424 79.8981 29.9756 85.0269 29.9756ZM84.9222 15.2522C87.4691 15.2522 89.1089 16.8223 89.1089 19.1947H80.4563C80.875 16.6129 82.4102 15.2522 84.9222 15.2522Z" fill="#fff"/>
<path d="M95.7603 20.5205C95.7603 25.5097 98.9701 29.1731 103.855 29.1731C106.332 29.1731 108.46 28.1613 109.542 26.5564V29.4174C109.542 32.2783 107.658 34.1274 104.727 34.1274C102.11 34.1274 100.401 32.8016 100.121 30.5687H95.865C96.3883 35.1741 99.7726 38.0002 104.727 38.0002C110.309 38.0002 113.763 34.4066 113.763 28.6498V12.2866H109.821L109.577 14.6591C108.565 12.81 106.541 11.7284 103.959 11.7284C99.0399 11.7284 95.7603 15.4965 95.7603 20.5205ZM100.052 20.4159C100.052 17.5898 101.866 15.4616 104.692 15.4616C107.658 15.4616 109.437 17.4852 109.437 20.4159C109.437 23.4164 107.623 25.4748 104.692 25.4748C101.901 25.4748 100.052 23.3117 100.052 20.4159Z" fill="#fff"/>
<path d="M123.297 29.9756C125.984 29.9756 128.321 28.7545 129.054 26.9751L129.368 29.522H133.101V19.0552C133.101 14.2753 130.24 11.7633 125.6 11.7633C120.925 11.7633 117.854 14.2055 117.854 17.9387H121.483C121.483 16.1245 122.878 15.0778 125.39 15.0778C127.554 15.0778 128.949 16.0198 128.949 18.3574V18.7412L123.786 19.125C119.703 19.439 117.401 21.4277 117.401 24.6026C117.401 27.8473 119.634 29.9756 123.297 29.9756ZM124.693 26.7658C122.774 26.7658 121.727 25.9982 121.727 24.4282C121.727 23.0326 122.739 22.1603 125.39 21.9161L128.984 21.637V22.5441C128.984 25.1957 127.309 26.7658 124.693 26.7658Z" fill="#fff"/>
<path d="M0 0L30.8638 30.8638H0V0Z" fill="#3056D3"/>
<path d="M30.8638 0L0 30.8638H30.8638V0Z" fill="#97ACEF"/>
</svg>
