<svg width="21" height="14" viewBox="0 0 21 14" fill="none" xmlns="http://www.w3.org/2000/svg">
<g clip-path="url(#clip0_3046_2239)">
<path d="M18.4739 0.412109H1.55556C0.696446 0.412109 0 1.10856 0 1.96767V12.1899C0 13.049 0.696446 13.7455 1.55556 13.7455H18.4739C19.333 13.7455 20.0295 13.049 20.0295 12.1899V1.96767C20.0295 1.10856 19.333 0.412109 18.4739 0.412109Z" fill="white"/>
<mask id="mask0_3046_2239" style="mask-type:alpha" maskUnits="userSpaceOnUse" x="0" y="0" width="21" height="14">
<path d="M18.4739 0.412109H1.55556C0.696446 0.412109 0 1.10856 0 1.96767V12.1899C0 13.049 0.696446 13.7455 1.55556 13.7455H18.4739C19.333 13.7455 20.0295 13.049 20.0295 12.1899V1.96767C20.0295 1.10856 19.333 0.412109 18.4739 0.412109Z" fill="white"/>
</mask>
<g mask="url(#mask0_3046_2239)">
<path fill-rule="evenodd" clip-rule="evenodd" d="M20.0295 0.412109H0V1.301H20.0295V0.412109ZM20.0295 2.18989H0V3.07878H20.0295V2.18989ZM0 3.96766H20.0295V4.85655H0V3.96766ZM20.0295 5.74545H0V6.63433H20.0295V5.74545ZM0 7.52323H20.0295V8.41214H0V7.52323ZM20.0295 9.30098H0V10.1899H20.0295V9.30098ZM0 11.0787H20.0295V11.9677H0V11.0787ZM20.0295 12.8566H0V13.7454H20.0295V12.8566Z" fill="#D02F44"/>
<path d="M8.5841 0.412109H0V6.63433H8.5841V0.412109Z" fill="#46467F"/>
<g filter="url(#filter0_d_3046_2239)">
<path fill-rule="evenodd" clip-rule="evenodd" d="M1.9074 1.74522C1.9074 1.99069 1.69389 2.18966 1.43051 2.18966C1.16713 2.18966 0.953613 1.99069 0.953613 1.74522C0.953613 1.49976 1.16713 1.30078 1.43051 1.30078C1.69389 1.30078 1.9074 1.49976 1.9074 1.74522ZM3.81497 1.74522C3.81497 1.99069 3.60146 2.18966 3.33809 2.18966C3.0747 2.18966 2.86119 1.99069 2.86119 1.74522C2.86119 1.49976 3.0747 1.30078 3.33809 1.30078C3.60146 1.30078 3.81497 1.49976 3.81497 1.74522ZM5.24566 2.18966C5.50903 2.18966 5.72255 1.99069 5.72255 1.74522C5.72255 1.49976 5.50903 1.30078 5.24566 1.30078C4.98228 1.30078 4.76876 1.49976 4.76876 1.74522C4.76876 1.99069 4.98228 2.18966 5.24566 2.18966ZM7.63012 1.74522C7.63012 1.99069 7.41661 2.18966 7.15322 2.18966C6.88985 2.18966 6.67634 1.99069 6.67634 1.74522C6.67634 1.49976 6.88985 1.30078 7.15322 1.30078C7.41661 1.30078 7.63012 1.49976 7.63012 1.74522ZM2.3843 3.07855C2.64768 3.07855 2.86119 2.87957 2.86119 2.63411C2.86119 2.38864 2.64768 2.18966 2.3843 2.18966C2.12092 2.18966 1.9074 2.38864 1.9074 2.63411C1.9074 2.87957 2.12092 3.07855 2.3843 3.07855ZM4.76876 2.63411C4.76876 2.87957 4.55525 3.07855 4.29187 3.07855C4.02849 3.07855 3.81497 2.87957 3.81497 2.63411C3.81497 2.38864 4.02849 2.18966 4.29187 2.18966C4.55525 2.18966 4.76876 2.38864 4.76876 2.63411ZM6.19944 3.07855C6.46282 3.07855 6.67634 2.87957 6.67634 2.63411C6.67634 2.38864 6.46282 2.18966 6.19944 2.18966C5.93606 2.18966 5.72255 2.38864 5.72255 2.63411C5.72255 2.87957 5.93606 3.07855 6.19944 3.07855ZM7.63012 3.523C7.63012 3.76847 7.41661 3.96745 7.15322 3.96745C6.88985 3.96745 6.67634 3.76847 6.67634 3.523C6.67634 3.27754 6.88985 3.07856 7.15322 3.07856C7.41661 3.07856 7.63012 3.27754 7.63012 3.523ZM5.24566 3.96745C5.50903 3.96745 5.72255 3.76847 5.72255 3.523C5.72255 3.27754 5.50903 3.07856 5.24566 3.07856C4.98228 3.07856 4.76876 3.27754 4.76876 3.523C4.76876 3.76847 4.98228 3.96745 5.24566 3.96745ZM3.81497 3.523C3.81497 3.76847 3.60146 3.96745 3.33809 3.96745C3.0747 3.96745 2.86119 3.76847 2.86119 3.523C2.86119 3.27754 3.0747 3.07856 3.33809 3.07856C3.60146 3.07856 3.81497 3.27754 3.81497 3.523ZM1.43051 3.96745C1.69389 3.96745 1.9074 3.76847 1.9074 3.523C1.9074 3.27754 1.69389 3.07856 1.43051 3.07856C1.16713 3.07856 0.953613 3.27754 0.953613 3.523C0.953613 3.76847 1.16713 3.96745 1.43051 3.96745ZM2.86119 4.41189C2.86119 4.65735 2.64768 4.85633 2.3843 4.85633C2.12092 4.85633 1.9074 4.65735 1.9074 4.41189C1.9074 4.16643 2.12092 3.96745 2.3843 3.96745C2.64768 3.96745 2.86119 4.16643 2.86119 4.41189ZM4.29187 4.85633C4.55525 4.85633 4.76876 4.65735 4.76876 4.41189C4.76876 4.16643 4.55525 3.96745 4.29187 3.96745C4.02849 3.96745 3.81497 4.16643 3.81497 4.41189C3.81497 4.65735 4.02849 4.85633 4.29187 4.85633ZM6.67634 4.41189C6.67634 4.65735 6.46282 4.85633 6.19944 4.85633C5.93606 4.85633 5.72255 4.65735 5.72255 4.41189C5.72255 4.16643 5.93606 3.96745 6.19944 3.96745C6.46282 3.96745 6.67634 4.16643 6.67634 4.41189ZM7.15322 5.74522C7.41661 5.74522 7.63012 5.54623 7.63012 5.30078C7.63012 5.05532 7.41661 4.85633 7.15322 4.85633C6.88985 4.85633 6.67634 5.05532 6.67634 5.30078C6.67634 5.54623 6.88985 5.74522 7.15322 5.74522ZM5.72255 5.30078C5.72255 5.54623 5.50903 5.74522 5.24566 5.74522C4.98228 5.74522 4.76876 5.54623 4.76876 5.30078C4.76876 5.05532 4.98228 4.85633 5.24566 4.85633C5.50903 4.85633 5.72255 5.05532 5.72255 5.30078ZM3.33809 5.74522C3.60146 5.74522 3.81497 5.54623 3.81497 5.30078C3.81497 5.05532 3.60146 4.85633 3.33809 4.85633C3.0747 4.85633 2.86119 5.05532 2.86119 5.30078C2.86119 5.54623 3.0747 5.74522 3.33809 5.74522ZM1.9074 5.30078C1.9074 5.54623 1.69389 5.74522 1.43051 5.74522C1.16713 5.74522 0.953613 5.54623 0.953613 5.30078C0.953613 5.05532 1.16713 4.85633 1.43051 4.85633C1.69389 4.85633 1.9074 5.05532 1.9074 5.30078Z" fill="url(#paint0_linear_3046_2239)"/>
</g>
</g>
</g>
<defs>
<filter id="filter0_d_3046_2239" x="-3.04639" y="-1.69922" width="14.6765" height="12.4453" filterUnits="userSpaceOnUse" color-interpolation-filters="sRGB">
<feFlood flood-opacity="0" result="BackgroundImageFix"/>
<feColorMatrix in="SourceAlpha" type="matrix" values="0 0 0 0 0 0 0 0 0 0 0 0 0 0 0 0 0 0 127 0" result="hardAlpha"/>
<feOffset dy="1"/>
<feGaussianBlur stdDeviation="2"/>
<feColorMatrix type="matrix" values="0 0 0 0 0 0 0 0 0 0 0 0 0 0 0 0 0 0 0.06 0"/>
<feBlend mode="normal" in2="BackgroundImageFix" result="effect1_dropShadow_3046_2239"/>
<feBlend mode="normal" in="SourceGraphic" in2="effect1_dropShadow_3046_2239" result="shape"/>
</filter>
<linearGradient id="paint0_linear_3046_2239" x1="0.953613" y1="1.30078" x2="0.953613" y2="5.74522" gradientUnits="userSpaceOnUse">
<stop stop-color="white"/>
<stop offset="1" stop-color="#F0F0F0"/>
</linearGradient>
<clipPath id="clip0_3046_2239">
<rect width="20.2222" height="14" fill="white"/>
</clipPath>
</defs>
</svg>
